<svg xmlns="http://www.w3.org/2000/svg" width="65.425" height="89.211" viewBox="0 0 65.425 89.211">
  <path id="_21042372421536669842" data-name="21042372421536669842" d="M82.854,24.75H79.308V15.88A1.7,1.7,0,0,0,77.7,14.093H25.8a1.7,1.7,0,0,0-1.606,1.787v8.87H20.642a1.7,1.7,0,0,0-1.606,1.787v9.013a1.7,1.7,0,0,0,1.606,1.787h3.723l6.665,64.383a1.679,1.679,0,0,0,1.6,1.583H70.873a1.678,1.678,0,0,0,1.6-1.583l6.664-64.383h3.721a1.7,1.7,0,0,0,1.606-1.787V26.537A1.7,1.7,0,0,0,82.854,24.75ZM27.4,17.668H76.095v7.083H27.4ZM71.086,83.836H32.412l-3.018-29.15H74.1ZM34.058,99.73,32.783,87.41H70.716L69.44,99.73ZM74.474,51.112H29.025L27.6,37.339H75.9Zm6.774-17.349h-59V28.324h59Z" transform="translate(-19.036 -14.093)" fill="#fff"/>
</svg>
